# xmcd CD database file
#
# Track frame offsets:
#	150
#	16863
#	32009
#	50112
#	67793
#	84128
#	96232
#	108686
#	123071
#	142034
#	156112
#	175109
#	192887
#	213284
#
# Disc length: 2855 seconds
#
# Revision: 0
# Processed by: cddbd v1.4PL0 Copyright (c) Steve Scherf et al.
# Submitted via: CDex 1.51
#
DISCID=b20b250e
DTITLE=L'Autobus à vapeur - fant pas s'moquer des perroquetes
DYEAR=1900
DGENRE=Jazz
TTITLE0=On a les chocottes
TTITLE1=Fant pas s'moquer des perroquetes
TTITLE2=J'aime le ch'wing
TTITLE3=Bafonille
TTITLE4=Pas fait exprès
TTITLE5=Le serpent
TTITLE6=Méli - mélo
TTITLE7=Les funirailles de l'épouvantail
TTITLE8=L'aftreux jojo
TTITLE9=Chanson pour apprendere
TTITLE10=Johnny Cagoule
TTITLE11=La méduse 2 - le retour
TTITLE12=La petite vieille du rez - de chaursée
TTITLE13=Last track
EXTD=
EXTT0=
EXTT1=
EXTT2=
EXTT3=
EXTT4=
EXTT5=
EXTT6=
EXTT7=
EXTT8=
EXTT9=
EXTT10=
EXTT11=
EXTT12=
EXTT13=
PLAYORDER=
